{"title":"Seven Deadly Sins 2010 Miniserie DVD9rip English Klam","uid":11706724,"size":3194103925,"categoryP":"video","categoryS":"movies","magnet":"?xt=urn:btih:a49712feaba696316469e600d113068d7d29a3ae&amp;dn=Seven+Deadly+Sins+2010+Miniserie+DVD9rip+English+Klam&amp;tr=udp%3A%2F%2Ftracker.openbittorrent.com%3A80&amp;tr=udp%3A%2F%2Fopen.demonii.com%3A1337&amp;tr=udp%3A%2F%2Ftracker.coppersurfer.tk%3A6969&amp;tr=udp%3A%2F%2Fexodus.desync.com%3A6969","seeders":0,"leechers":1,"uploader":"Klambake","files":7,"time":1424163638,"description":" &lt;a href=&quot;http://i.imgur.com/zzycEu1.jpg&quot; rel=&quot;nofollow&quot; target=&quot;_NEW&quot;&gt;http://i.imgur.com/zzycEu1.jpg&lt;/a&gt;\n\nWith: Dreama Walker, Jared Keeso and Rachel Melvin\n\nEen moderne kijk op de beruchte 'zeven hoofdzonden'. Harper Grace is een manipulatieve 'bijenkoningin' in haar plaatselijke middelbare school, maar haar populariteit daalt plots als de uitwisselingsstudente Kaia Sellers naar de stad komt. Deze weet niet alleen de vriend van Harper's beste vriendin te verleiden, maar presteert het ook om met de leraar Frans in bed te belanden. Zonder dat Harper het weet, heeft haar vader Hank een buitenechtelijke affaire met Sharon Geary, de lokale sheriff. Maar de zeven hoofdzonden hebben een prijs en wanneer een van de tieners op mysterieuze wijze vermoord wordt, wijzen alle tekenen naar Harper als schuldige.\n\nA sheriff uncovers dark secrets when the daughter of her lover becomes a murder suspect. Based on the novels by Robin Wasserman.\n &lt;a href=&quot;\nhttp://www.imdb.com/title/tt1492152&quot; rel=&quot;nofollow&quot; target=&quot;_NEW&quot;&gt;\nhttp://www.imdb.com/title/tt1492152&lt;/a&gt;\n\n--------------------- Dutch Friends 4ever ---------------------\n---------------------------------------------------------------\n- Bezoek ook eens mijn vrienden op: &lt;a href=&quot; http://www.Film-Test.nl&quot; rel=&quot;nofollow&quot; target=&quot;_NEW&quot;&gt; http://www.Film-Test.nl&lt;/a&gt; --\n----- voor mijn Nederlandse Sync. ondertitels ---- en meer ----\n------- http://www.Film-Test.nl ---- Over Films en meer -------\n---------------------------------------------------------------\n &lt;a href=&quot;\nhttp://i.imgur.com/R0Ykk75.jpg&quot; rel=&quot;nofollow&quot; target=&quot;_NEW&quot;&gt;\nhttp://i.imgur.com/R0Ykk75.jpg&lt;/a&gt; &lt;a href=&quot;\nhttp://i.imgur.com/MzoZKKW.jpg&quot; rel=&quot;nofollow&quot; target=&quot;_NEW&quot;&gt;\nhttp://i.imgur.com/MzoZKKW.jpg&lt;/a&gt; &lt;a href=&quot;\nhttp://i.imgur.com/yrvY6X1.jpg&quot; rel=&quot;nofollow&quot; target=&quot;_NEW&quot;&gt;\nhttp://i.imgur.com/yrvY6X1.jpg&lt;/a&gt;\n\nGeneral:\n\nComplete name                            : Seven Deadly SinsPart01.avi\nFormat                                   : AVI\nFormat/Info                              : Audio Video Interleave\nFile size                                : 1.47 GiB\nDuration                                 : 1h 24mn\nOverall bit rate                         : 2 482 Kbps\n\nVideo:\n\nFormat                                   : MPEG-4 Visual\nFormat profile                           : Simple@L3\nFormat settings, BVOP                    : No\nFormat settings, QPel                    : No\nFormat settings, GMC                     : No warppoints\nFormat settings, Matrix                  : Default (H.263)\nCodec ID                                 : XVID\nCodec ID/Hint                            : XviD\nDuration                                 : 1h 24mn\nBit rate                                 : 2 023 Kbps\nWidth                                    : 720 pixels\nHeight                                   : 384 pixels\nDisplay aspect ratio                     : 1.85:1\nFrame rate                               : 25.000 fps\nColor space                              : YUV\nChroma subsampling                       : 4:2:0\nBit depth                                : 8 bits\nScan type                                : Progressive\nCompression mode                         : Lossy\nBits/(Pixel*Frame)                       : 0.293\nStream size                              : 1.20 GiB (82%)\nWriting library                          : XviD 1.1.2 (UTC 2006-11-01)\n\nAudio:\n\nFormat                                   : AC-3\nFormat/Info                              : Audio Coding 3\nMode extension                           : CM (complete main)\nFormat settings, Endianness              : Big\nCodec ID                                 : 2000\nDuration                                 : 1h 24mn\nSource duration                          : 1h 24mn\nBit rate mode                            : Constant\nBit rate                                 : 448 Kbps\nChannel(s)                               : 6 channels\nChannel positions                        : Front: L C R, Side: L R, LFE\nSampling rate                            : 48.0 KHz\nBit depth                                : 16 bits\nCompression mode                         : Lossy\nStream size                              : 271 MiB (18%)\nAlignment                                : Aligned on interleaves\nInterleave, duration                     : 32 ms (0.80 video frame)\nInterleave, preload duration             : 1024 ms","torrent":{"xt":"urn:btih:a49712feaba696316469e600d113068d7d29a3ae","amp;dn":"Seven+Deadly+Sins+2010+Miniserie+DVD9rip+English+Klam","amp;tr":["udp%3A%2F%2Ftracker.openbittorrent.com%3A80","udp%3A%2F%2Fopen.demonii.com%3A1337","udp%3A%2F%2Ftracker.coppersurfer.tk%3A6969","udp%3A%2F%2Fexodus.desync.com%3A6969"],"infoHash":"a49712feaba696316469e600d113068d7d29a3ae","infoHashBuffer":{"type":"Buffer","data":[164,151,18,254,171,166,150,49,100,105,230,0,209,19,6,141,125,41,163,174]},"announce":[],"urlList":[]}}